<svg id="Layer_1" data-name="Layer 1" xmlns="http://www.w3.org/2000/svg" xmlns:xlink="http://www.w3.org/1999/xlink" viewBox="0 0 422.26 400.09"><defs><style>.cls-1,.cls-6{fill:none;}.cls-2,.cls-5{fill:#604fa1;}.cls-3{clip-path:url(#clip-path);}.cls-4{fill:#4b4b4b;}.cls-5,.cls-6{stroke:#000;stroke-miterlimit:10;}</style><clipPath id="clip-path" transform="translate(-491.25 -234.21)"><rect class="cls-1" x="491.34" y="275.21" width="422" height="359"/></clipPath></defs><path class="cls-2" d="M576.68,253.08l-1.93,11.13h-3.67L576,235.77l9.49,0a9.28,9.28,0,0,1,6.78,2.35,7.31,7.31,0,0,1,2.05,6.19,8.88,8.88,0,0,1-3.26,6.43,11.79,11.79,0,0,1-7.64,2.34Zm.53-3.07,6.33,0a7.72,7.72,0,0,0,4.9-1.5,6,6,0,0,0,2.25-4.18,4.73,4.73,0,0,0-1-3.89,5,5,0,0,0-3.81-1.58l-6.74,0Zm31.15-3.71-1.66-.17a6.05,6.05,0,0,0-5.35,3.06l-2.6,15h-3.53l3.67-21.13,3.42,0-.53,2.46a6.31,6.31,0,0,1,5.29-2.87,6.69,6.69,0,0,1,1.68.29Zm12.33,17.91a4.82,4.82,0,0,1-.14-1.11l.06-1.11a8.69,8.69,0,0,1-6.17,2.61,6.31,6.31,0,0,1-4.55-1.76,5.39,5.39,0,0,1-1.59-4.33,6.5,6.5,0,0,1,2.93-5.24,12.56,12.56,0,0,1,7.23-1.89l3.69,0,.24-1.68a3.8,3.8,0,0,0-.75-3,3.49,3.49,0,0,0-2.77-1.15,5.37,5.37,0,0,0-3.22.9,3.73,3.73,0,0,0-1.7,2.44l-3.56,0a5.61,5.61,0,0,1,1.45-3.28,8.14,8.14,0,0,1,3.26-2.23,10.42,10.42,0,0,1,4.12-.76,7,7,0,0,1,5.14,2,6.19,6.19,0,0,1,1.54,5.1l-1.72,10.47-.1,1.5a7.66,7.66,0,0,0,.24,2.13l0,.33Zm-5.55-2.73a6.21,6.21,0,0,0,3.2-.8,8.2,8.2,0,0,0,2.62-2.37l.76-4.35-2.67,0a10.16,10.16,0,0,0-5.12,1.05,3.87,3.87,0,0,0-2,3,3.07,3.07,0,0,0,.68,2.48A3.38,3.38,0,0,0,615.14,261.48Zm22.87.19a5.42,5.42,0,0,0,3.42-1.09,5.31,5.31,0,0,0,2-3l3.34,0a7.43,7.43,0,0,1-1.6,3.63,9.15,9.15,0,0,1-7.31,3.42,7.64,7.64,0,0,1-4.47-1.36,7.82,7.82,0,0,1-2.67-3.73,12.46,12.46,0,0,1-.59-5.4l.1-1a14,14,0,0,1,1.77-5.45,10.21,10.21,0,0,1,3.68-3.73,9.06,9.06,0,0,1,5-1.27,7.11,7.11,0,0,1,5.31,2.23,7.67,7.67,0,0,1,2,5.44l-3.3,0a5,5,0,0,0-1.15-3.33,4,4,0,0,0-3-1.37,5.64,5.64,0,0,0-4.59,2.05,10.77,10.77,0,0,0-2.27,5.9l0,.5a17,17,0,0,0,0,2.58,5.89,5.89,0,0,0,1.29,3.62A4.14,4.14,0,0,0,638,261.67ZM658.93,238l-.9,5.12h3.85l-.49,2.79h-3.83L655.35,259a5.92,5.92,0,0,0,0,.93,1.5,1.5,0,0,0,1.66,1.53,10.18,10.18,0,0,0,1.72-.2l-.27,3a9.44,9.44,0,0,1-2.58.35A3.69,3.69,0,0,1,652.7,263a6,6,0,0,1-.82-4.08L654,245.87H650.3l.48-2.79h3.73l.9-5.12Zm7.38,26.25H662.8l3.67-21.13H670Zm2.91-28.85a1.92,1.92,0,0,1,1.49.55,2,2,0,0,1,.6,1.51,2.08,2.08,0,0,1-2.09,2.12,1.88,1.88,0,0,1-2.07-2,2.18,2.18,0,0,1,.59-1.52A2.08,2.08,0,0,1,669.22,235.36Zm16,23.13q.29-2.19-2.4-3.09l-3.68-1.07q-4.64-1.61-4.49-5.31a5.81,5.81,0,0,1,2.54-4.57,9.06,9.06,0,0,1,5.68-1.76,7.5,7.5,0,0,1,5.2,1.87,5.85,5.85,0,0,1,1.93,4.75l-3.51,0a3.34,3.34,0,0,0-1-2.58,3.93,3.93,0,0,0-2.75-1,5.1,5.1,0,0,0-3.17.9,3.26,3.26,0,0,0-1.42,2.3c-.17,1.22.58,2.12,2.24,2.68l1.78.48a11.47,11.47,0,0,1,5.16,2.45,4.66,4.66,0,0,1,1.4,3.73,5.79,5.79,0,0,1-1.29,3.43,7.4,7.4,0,0,1-3.12,2.25,10.5,10.5,0,0,1-4.16.7,8.23,8.23,0,0,1-5.55-2,6.09,6.09,0,0,1-2.11-5l3.54,0a3.77,3.77,0,0,0,1.13,2.85,4.32,4.32,0,0,0,3.11,1.07,6.11,6.11,0,0,0,3.34-.8A3.15,3.15,0,0,0,685.18,258.49Zm16.25,6.11a7.6,7.6,0,0,1-6.17-2.91,10,10,0,0,1-1.88-7.24l.1-.84a14.26,14.26,0,0,1,1.85-5.75,10.84,10.84,0,0,1,3.75-3.9,8.66,8.66,0,0,1,4.77-1.27,6.71,6.71,0,0,1,5.12,2.17,9,9,0,0,1,2,5.66,16.59,16.59,0,0,1-.08,2.54l-.21,1.62H696.9a7.19,7.19,0,0,0,.93,4.88,4.52,4.52,0,0,0,3.89,2.09,7.48,7.48,0,0,0,5.78-2.81l2,1.72a9.32,9.32,0,0,1-3.43,3A9.77,9.77,0,0,1,701.43,264.6Zm2.24-19a5.17,5.17,0,0,0-3.82,1.48,10.65,10.65,0,0,0-2.58,4.59l10.27,0,.08-.31a5.71,5.71,0,0,0-.8-4.08A3.68,3.68,0,0,0,703.67,245.64Zm27.27,9.8-.08,3.44,1.33-3.36,8.5-19.75h3.1l2.25,20,.19,3.25,1.23-3.93,7.27-19.32h3.77l-11.13,28.44H744l-2.46-20.88-.08-2-.82,2.27-9.07,20.56h-3.34L726,235.77h3.57Zm37.62-12.75a7.62,7.62,0,0,1,4.55,1.44A8.21,8.21,0,0,1,775.9,248a12,12,0,0,1,.63,5.39l0,.43a14.31,14.31,0,0,1-1.84,5.59,10.79,10.79,0,0,1-3.79,3.86,9.22,9.22,0,0,1-5.1,1.31,7.71,7.71,0,0,1-4.55-1.44,8.13,8.13,0,0,1-2.77-3.83,12.26,12.26,0,0,1-.62-5.33,14.28,14.28,0,0,1,1.77-5.9,10.92,10.92,0,0,1,3.81-4A9.1,9.1,0,0,1,768.56,242.69ZM761.37,254a12.16,12.16,0,0,0,0,2.56,6.32,6.32,0,0,0,1.37,3.67,4.16,4.16,0,0,0,3.16,1.42,5.6,5.6,0,0,0,3.24-.86,7.27,7.27,0,0,0,2.5-2.81,11.66,11.66,0,0,0,1.31-4.16,17.63,17.63,0,0,0,.06-3,6.5,6.5,0,0,0-1.43-3.73,4.2,4.2,0,0,0-3.16-1.44,5.75,5.75,0,0,0-4.65,2.15,10.63,10.63,0,0,0-2.36,5.78Zm30.94-7.72-1.66-.17a6,6,0,0,0-5.35,3.06l-2.6,15h-3.54l3.67-21.13,3.42,0-.52,2.46a6.3,6.3,0,0,1,5.29-2.87,6.69,6.69,0,0,1,1.68.29Zm.8,7.31a16.3,16.3,0,0,1,1.78-5.82,10,10,0,0,1,3.41-3.89,7.83,7.83,0,0,1,4.48-1.23,6.61,6.61,0,0,1,5.43,2.58l2-11h3.53l-5.19,30h-3.23l.38-2.26a7.82,7.82,0,0,1-6.18,2.65,5.82,5.82,0,0,1-4.66-2.28,10,10,0,0,1-1.88-6A18,18,0,0,1,793.11,253.61Zm3.4,2a7.32,7.32,0,0,0,1,4.33,3.61,3.61,0,0,0,3.09,1.59q3.06.13,5.45-3.09l1.68-9.77a4.38,4.38,0,0,0-4.26-3,5.35,5.35,0,0,0-3.69,1.27,8.11,8.11,0,0,0-2.42,3.69A15.12,15.12,0,0,0,796.51,255.64Zm30.74,2.85q.29-2.19-2.4-3.09l-3.68-1.07q-4.63-1.61-4.49-5.31a5.81,5.81,0,0,1,2.54-4.57,9.06,9.06,0,0,1,5.68-1.76,7.5,7.5,0,0,1,5.2,1.87,5.85,5.85,0,0,1,1.93,4.75l-3.51,0a3.34,3.34,0,0,0-1-2.58,3.93,3.93,0,0,0-2.75-1,5.1,5.1,0,0,0-3.17.9,3.26,3.26,0,0,0-1.42,2.3c-.17,1.22.58,2.12,2.24,2.68l1.78.48a11.47,11.47,0,0,1,5.16,2.45,4.66,4.66,0,0,1,1.4,3.73,5.84,5.84,0,0,1-1.28,3.43,7.5,7.5,0,0,1-3.13,2.25,10.5,10.5,0,0,1-4.16.7,8.23,8.23,0,0,1-5.55-2,6.09,6.09,0,0,1-2.11-5l3.54,0a3.77,3.77,0,0,0,1.13,2.85,4.32,4.32,0,0,0,3.11,1.07,6.11,6.11,0,0,0,3.34-.8A3.15,3.15,0,0,0,827.25,258.49Z" transform="translate(-491.25 -234.21)"/><g class="cls-3"><path class="cls-4" d="M702.42,504.94c-13.15.33-25.64-1.82-37-9a38.19,38.19,0,0,1-15.22-18.46c-2.15-5.22-.42-9.53,4-10.27,3.64-.67,6.2.66,7.44,4.3,4.88,14.08,15.8,20.29,29.7,21.62a108.59,108.59,0,0,0,24.31-.17c12.49-1.65,23.24-6.79,27.63-20.12.25-.75.74-1.49,1.07-2.24,1.66-3.56,4.72-5.38,7.28-4.39a7.06,7.06,0,0,1,4.47,8.7,36.29,36.29,0,0,1-15.39,20.7C729.05,503,716,505.11,702.42,504.94Z" transform="translate(-491.25 -234.21)"/><path class="cls-4" d="M770.66,390c-3.39,4.56-6.2,8.95-3.14,14.58,4.3,8,10.83,8.61,18.36,5.22,1.49,9.27-4.55,19.13-12.74,22.94a23.18,23.18,0,0,1-28.78-7c-6.29-8.28-6.12-20.87.16-28.74C751.22,388.67,761,386.51,770.66,390Z" transform="translate(-491.25 -234.21)"/><path class="cls-4" d="M666.61,410.45c3.88,5.3-.25,17.39-6.79,22.44a23.65,23.65,0,0,1-31.59-1.74c-7.94-7.87-8.85-22.11-1.66-31,5.3-6.63,15.14-11.1,21.67-7.71-1.15,4.06-3.06,7.95-3.22,11.93-.08,2.4,2,5.63,4.05,7.29C654,415.58,657.59,417.24,666.61,410.45Z" transform="translate(-491.25 -234.21)"/><path class="cls-5" d="M663,610c2.48-12.59,3.72-37.43,2.15-37.43H498c-6.12,0-6.29-.17-6.29-6.3q0-89.43.08-179V282.17c0-6.54,0-6.54,6.79-6.54q116.63,0,233.25.08H906c7,0,7,0,7,7.12q0,55.77-.09,111.47,0,85.71.09,171.51c0,6.87,0,6.87-7,6.87q-82.14,0-164.18-.08h-6.62c2.56,12.67,5,24.84,7.44,37.43h4.47c11.33,0,22.58.08,33.91-.08,3.64-.08,4.88,1.24,4.72,4.8a112.11,112.11,0,0,0,0,14.08c.24,4-1.33,5-5,5-19.68-.08-39.45,0-59.14-.08q-48.63,0-97.18-.17c-5.46,0-5.46,0-5.46-5.63V615.5c0-5.55.08-5.63,5.46-5.63,11.33,0,22.58.08,33.91.08C659.74,610,661.06,610,663,610ZM534.18,517.28H870.49v-211H534.18Zm87.51,113.45H782.9v-18H621.69Zm118.12-21c-2.48-12.51-5-24.68-7.45-37.1-19.35,0-38.21-.08-57,.16-2.39-.16-2.48,1.83-2.81,3.07-1.07,4-1.74,8-2.56,12.09-1.41,7.12-2.73,14.24-4.22,21.78Z" transform="translate(-491.25 -234.21)"/><path class="cls-6" d="M735.18,572.6l-2.73.08" transform="translate(-491.25 -234.21)"/><path class="cls-6" d="M674.71,572.85l-9.59-.25" transform="translate(-491.25 -234.21)"/></g></svg>